<svg width="14" height="14" viewBox="0 0 14 14" fill="none" xmlns="http://www.w3.org/2000/svg">
<path d="M2.39971 1.9035C2.58957 1.34811 2.94836 0.865999 3.42586 0.524672C3.90335 0.183345 4.47564 -0.000107486 5.06258 4.72472e-08H10.6876C11.4335 4.72472e-08 12.1489 0.296316 12.6763 0.823762C13.2038 1.35121 13.5001 2.06658 13.5001 2.8125V8.4375C13.5001 9.67275 12.7036 10.7212 11.5966 11.1004V11.5099C11.5966 11.8868 11.465 12.3682 11.1556 12.7654C10.8305 13.1839 10.3141 13.5 9.60646 13.5H3.11521C2.70524 13.5028 2.29879 13.4242 1.91948 13.2686C1.54018 13.1129 1.19559 12.8835 0.905743 12.5935C0.615894 12.3036 0.386568 11.9589 0.231091 11.5796C0.0756151 11.2002 -0.00290918 10.7937 8.23684e-05 10.3837V3.89587C8.23684e-05 3.27825 0.221707 2.76412 0.614332 2.4075C0.996832 2.05987 1.49746 1.90463 1.99021 1.90463H2.39971V1.9035ZM2.25008 3.0285H1.99133C1.76525 3.01946 1.5439 3.09485 1.37033 3.24C1.23758 3.36038 1.12508 3.5595 1.12508 3.89475V10.3849C1.12508 11.502 1.99808 12.3761 3.11633 12.3761H9.60646C9.94283 12.3761 10.1397 12.24 10.268 12.0746C10.3919 11.9116 10.4626 11.7145 10.4705 11.5099V11.25H5.06258C4.31666 11.25 3.60129 10.9537 3.07384 10.4262C2.5464 9.89879 2.25008 9.18342 2.25008 8.4375V3.0285ZM6.75008 4.5H8.20471L5.22683 7.47675C5.17453 7.52905 5.13305 7.59114 5.10474 7.65947C5.07644 7.7278 5.06187 7.80104 5.06187 7.875C5.06187 7.94896 5.07644 8.0222 5.10474 8.09053C5.13305 8.15886 5.17453 8.22095 5.22683 8.27325C5.27913 8.32555 5.34122 8.36703 5.40955 8.39534C5.47788 8.42364 5.55112 8.43821 5.62508 8.43821C5.69904 8.43821 5.77228 8.42364 5.84061 8.39534C5.90895 8.36703 5.97103 8.32555 6.02333 8.27325L9.00008 5.29537V6.75C9.00008 6.89918 9.05935 7.04226 9.16483 7.14775C9.27032 7.25324 9.4134 7.3125 9.56258 7.3125C9.71177 7.3125 9.85484 7.25324 9.96033 7.14775C10.0658 7.04226 10.1251 6.89918 10.1251 6.75V3.9375C10.1251 3.78832 10.0658 3.64524 9.96033 3.53975C9.85484 3.43426 9.71177 3.375 9.56258 3.375H6.75008C6.6009 3.375 6.45782 3.43426 6.35233 3.53975C6.24685 3.64524 6.18758 3.78832 6.18758 3.9375C6.18758 4.08668 6.24685 4.22976 6.35233 4.33525C6.45782 4.44074 6.6009 4.5 6.75008 4.5Z" fill="#0796D0"/>
</svg>
