<svg width="25" height="24" viewBox="0 0 25 24" fill="none" xmlns="http://www.w3.org/2000/svg">
<path d="M10.9091 12L6.65278 7.71C6.46639 7.5217 6.36167 7.2663 6.36167 7C6.36167 6.7337 6.46639 6.47831 6.65278 6.29C6.83917 6.1017 7.09197 5.99591 7.35556 5.99591C7.61916 5.99591 7.87195 6.1017 8.05834 6.29L12.3047 10.59L16.5512 6.29C16.7375 6.1017 16.9903 5.99591 17.2539 5.99591C17.5175 5.99591 17.7703 6.1017 17.9567 6.29C18.1431 6.47831 18.2478 6.7337 18.2478 7C18.2478 7.2663 18.1431 7.5217 17.9567 7.71L13.7004 12L17.9567 16.29C18.0495 16.383 18.1231 16.4936 18.1734 16.6154C18.2236 16.7373 18.2495 16.868 18.2495 17C18.2495 17.132 18.2236 17.2627 18.1734 17.3846C18.1231 17.5064 18.0495 17.617 17.9567 17.71C17.8647 17.8037 17.7552 17.8781 17.6346 17.9289C17.514 17.9797 17.3846 18.0058 17.2539 18.0058C17.1233 18.0058 16.9939 17.9797 16.8733 17.9289C16.7526 17.8781 16.6432 17.8037 16.5512 17.71L12.3047 13.41L8.05834 17.71C7.96633 17.8037 7.85685 17.8781 7.73623 17.9289C7.61561 17.9797 7.48623 18.0058 7.35556 18.0058C7.22489 18.0058 7.09551 17.9797 6.97489 17.9289C6.85427 17.8781 6.7448 17.8037 6.65278 17.71C6.56 17.617 6.48636 17.5064 6.43611 17.3846C6.38586 17.2627 6.35998 17.132 6.35998 17C6.35998 16.868 6.38586 16.7373 6.43611 16.6154C6.48636 16.4936 6.56 16.383 6.65278 16.29L10.9091 12Z" fill="#2D755B"/>
</svg>
