<svg width="50" height="50" viewBox="0 0 50 50" fill="none" xmlns="http://www.w3.org/2000/svg">
<path d="M46.6648 41.7969L26.3523 6.64062C26.0496 6.11816 25.5271 5.85938 24.9998 5.85938C24.4724 5.85938 23.9451 6.11816 23.6472 6.64062L3.33473 41.7969C2.73415 42.8418 3.4861 44.1406 4.68727 44.1406H45.3123C46.5134 44.1406 47.2654 42.8418 46.6648 41.7969ZM23.4373 20.3125C23.4373 20.0977 23.6131 19.9219 23.8279 19.9219H26.1716C26.3865 19.9219 26.5623 20.0977 26.5623 20.3125V29.2969C26.5623 29.5117 26.3865 29.6875 26.1716 29.6875H23.8279C23.6131 29.6875 23.4373 29.5117 23.4373 29.2969V20.3125ZM24.9998 37.5C24.3865 37.4875 23.8025 37.235 23.3732 36.7969C22.9438 36.3587 22.7034 35.7697 22.7034 35.1562C22.7034 34.5428 22.9438 33.9538 23.3732 33.5156C23.8025 33.0775 24.3865 32.825 24.9998 32.8125C25.6131 32.825 26.1971 33.0775 26.6264 33.5156C27.0557 33.9538 27.2962 34.5428 27.2962 35.1562C27.2962 35.7697 27.0557 36.3587 26.6264 36.7969C26.1971 37.235 25.6131 37.4875 24.9998 37.5Z" fill="#FF3D00"/>
</svg>
