<svg width="19" height="20" viewBox="0 0 19 20" fill="none" xmlns="http://www.w3.org/2000/svg">
<path fill-rule="evenodd" clip-rule="evenodd" d="M9.69509 0.833328C4.68404 0.833328 0.621582 4.93749 0.621582 9.99999C0.621582 15.0625 4.68404 19.1667 9.69509 19.1667C14.7061 19.1667 18.7686 15.0625 18.7686 9.99999C18.7686 4.93749 14.7061 0.833328 9.69509 0.833328ZM13.628 8.44999C13.7005 8.36636 13.7556 8.26894 13.7902 8.16347C13.8248 8.05799 13.8382 7.94659 13.8295 7.83581C13.8209 7.72504 13.7904 7.61713 13.7399 7.51843C13.6893 7.41974 13.6198 7.33225 13.5353 7.26111C13.4508 7.18998 13.3531 7.13663 13.2479 7.10421C13.1427 7.0718 13.0321 7.06096 12.9227 7.07235C12.8133 7.08374 12.7072 7.11712 12.6108 7.17052C12.5143 7.22393 12.4294 7.29628 12.3611 7.38333L8.81414 11.6825L6.97881 9.82749C6.82324 9.6757 6.61488 9.5917 6.3986 9.5936C6.18232 9.5955 5.97544 9.68314 5.8225 9.83765C5.66957 9.99215 5.58281 10.2012 5.58094 10.4197C5.57906 10.6382 5.6622 10.8487 5.81245 11.0058L8.28705 13.5058C8.3681 13.5877 8.46513 13.6515 8.57197 13.6934C8.6788 13.7352 8.7931 13.7541 8.90757 13.7489C9.02203 13.7436 9.13416 13.7143 9.2368 13.6629C9.33945 13.6114 9.43035 13.5389 9.50372 13.45L13.628 8.44999Z" fill="#178F50"/>
</svg>
