<svg width="26" height="24" viewBox="0 0 26 24" fill="none" xmlns="http://www.w3.org/2000/svg">
<path d="M13.9175 1.893C13.6209 1.6297 13.2282 1.48299 12.82 1.48299C12.4118 1.48299 12.0192 1.6297 11.7225 1.893L3.98426 8.7615C3.50501 9.186 3.23503 9.7785 3.23503 10.3965V18.7515C3.23503 19.3482 3.48749 19.9205 3.93687 20.3425C4.38626 20.7644 4.99575 21.0015 5.63128 21.0015H8.82628C9.14109 21.0015 9.45282 20.9433 9.74365 20.8301C10.0345 20.7169 10.2987 20.5511 10.5212 20.342C10.7438 20.1329 10.9203 19.8847 11.0406 19.6115C11.1609 19.3383 11.2227 19.0456 11.2225 18.75V15C11.2225 14.8011 11.3067 14.6103 11.4565 14.4697C11.6063 14.329 11.8094 14.25 12.0213 14.25H13.6188C13.8306 14.25 14.0338 14.329 14.1836 14.4697C14.3334 14.6103 14.4175 14.8011 14.4175 15V18.75C14.4175 19.3467 14.67 19.919 15.1194 20.341C15.5688 20.7629 16.1783 21 16.8138 21H20.0088C20.6443 21 21.2538 20.7629 21.7032 20.341C22.1526 19.919 22.405 19.3467 22.405 18.75V10.395C22.405 9.777 22.1335 9.1845 21.6542 8.76L13.9175 1.89V1.893ZM12.82 2.982L20.5583 9.852C20.6369 9.92193 20.6995 10.0061 20.7423 10.0995C20.7852 10.1928 20.8073 10.2934 20.8075 10.395V18.75C20.8075 18.9489 20.7234 19.1397 20.5736 19.2803C20.4238 19.421 20.2206 19.5 20.0088 19.5H16.8138C16.6019 19.5 16.3988 19.421 16.249 19.2803C16.0992 19.1397 16.015 18.9489 16.015 18.75V15C16.015 14.4033 15.7626 13.831 15.3132 13.409C14.8638 12.9871 14.2543 12.75 13.6188 12.75H12.0213C11.3858 12.75 10.7763 12.9871 10.3269 13.409C9.87749 13.831 9.62503 14.4033 9.62503 15V18.75C9.62503 18.9489 9.54088 19.1397 9.39108 19.2803C9.24129 19.421 9.03812 19.5 8.82628 19.5H5.63128C5.41944 19.5 5.21627 19.421 5.06648 19.2803C4.91668 19.1397 4.83253 18.9489 4.83253 18.75V10.395C4.8325 10.2931 4.85458 10.1923 4.89743 10.0987C4.94027 10.005 5.00299 9.9206 5.08174 9.8505L12.82 2.982Z" fill="#F0F0F0"/>
</svg>
