<svg width="24" height="24" viewBox="0 0 24 24" fill="none" xmlns="http://www.w3.org/2000/svg">
<path fill-rule="evenodd" clip-rule="evenodd" d="M13 20C13 19.7348 13.1054 19.4804 13.2929 19.2929C13.4804 19.1054 13.7348 19 14 19H19V5H14C13.7348 5 13.4804 4.89464 13.2929 4.70711C13.1054 4.51957 13 4.26522 13 4C13 3.73478 13.1054 3.48043 13.2929 3.29289C13.4804 3.10536 13.7348 3 14 3H19C19.5304 3 20.0391 3.21071 20.4142 3.58579C20.7893 3.96086 21 4.46957 21 5V19C21 19.5304 20.7893 20.0391 20.4142 20.4142C20.0391 20.7893 19.5304 21 19 21H14C13.7348 21 13.4804 20.8946 13.2929 20.7071C13.1054 20.5196 13 20.2652 13 20Z" fill="#F0F0F0"/>
<path d="M2.286 12.7C2.10308 12.5141 2.0004 12.2638 2 12.003V11.997C2.00052 11.7328 2.10591 11.4796 2.293 11.293L6.293 7.29299C6.38525 7.19748 6.49559 7.1213 6.6176 7.06889C6.7396 7.01648 6.87082 6.98889 7.0036 6.98774C7.13638 6.98659 7.26806 7.01189 7.39095 7.06217C7.51385 7.11245 7.6255 7.1867 7.71939 7.28059C7.81329 7.37449 7.88754 7.48614 7.93782 7.60904C7.9881 7.73193 8.0134 7.86361 8.01225 7.99639C8.0111 8.12917 7.98351 8.26039 7.9311 8.38239C7.87869 8.5044 7.80251 8.61474 7.707 8.70699L5.414 11H15C15.2652 11 15.5196 11.1053 15.7071 11.2929C15.8946 11.4804 16 11.7348 16 12C16 12.2652 15.8946 12.5196 15.7071 12.7071C15.5196 12.8946 15.2652 13 15 13H5.414L7.707 15.293C7.88916 15.4816 7.98995 15.7342 7.98767 15.9964C7.9854 16.2586 7.88023 16.5094 7.69482 16.6948C7.50941 16.8802 7.2586 16.9854 6.9964 16.9877C6.7342 16.9899 6.4816 16.8891 6.293 16.707L2.293 12.707L2.286 12.7Z" fill="#F0F0F0"/>
</svg>
