<svg width="23" height="23" viewBox="0 0 23 23" fill="none" xmlns="http://www.w3.org/2000/svg">
<path d="M19.2783 8.91666H18.0752C17.9807 8.91666 17.9033 8.83931 17.9033 8.74478V4.96353H14.1221C14.0275 4.96353 13.9502 4.88619 13.9502 4.79166V3.58853C13.9502 3.494 14.0275 3.41666 14.1221 3.41666H17.9893C18.7971 3.41666 19.4502 4.06978 19.4502 4.87759V8.74478C19.4502 8.83931 19.3729 8.91666 19.2783 8.91666ZM8.27832 4.96353H4.49707V8.74478C4.49707 8.83931 4.41973 8.91666 4.3252 8.91666H3.12207C3.02754 8.91666 2.9502 8.83931 2.9502 8.74478V4.87759C2.9502 4.06978 3.60332 3.41666 4.41113 3.41666H8.27832C8.37285 3.41666 8.4502 3.494 8.4502 3.58853V4.79166C8.4502 4.88619 8.37285 4.96353 8.27832 4.96353ZM14.1221 18.3698H17.9033V14.5885C17.9033 14.494 17.9807 14.4167 18.0752 14.4167H19.2783C19.3729 14.4167 19.4502 14.494 19.4502 14.5885V18.4557C19.4502 19.2635 18.7971 19.9167 17.9893 19.9167H14.1221C14.0275 19.9167 13.9502 19.8393 13.9502 19.7448V18.5417C13.9502 18.4471 14.0275 18.3698 14.1221 18.3698ZM3.12207 14.4167H4.3252C4.41973 14.4167 4.49707 14.494 4.49707 14.5885V18.3698H8.27832C8.37285 18.3698 8.4502 18.4471 8.4502 18.5417V19.7448C8.4502 19.8393 8.37285 19.9167 8.27832 19.9167H4.41113C3.60332 19.9167 2.9502 19.2635 2.9502 18.4557V14.5885C2.9502 14.494 3.02754 14.4167 3.12207 14.4167ZM2.77832 10.8932H19.6221C19.7166 10.8932 19.7939 10.9706 19.7939 11.0651V12.2682C19.7939 12.3628 19.7166 12.4401 19.6221 12.4401H2.77832C2.68379 12.4401 2.60645 12.3628 2.60645 12.2682V11.0651C2.60645 10.9706 2.68379 10.8932 2.77832 10.8932Z" fill="#0796D0"/>
</svg>
