<svg width="24" height="24" viewBox="0 0 24 24" fill="none" xmlns="http://www.w3.org/2000/svg">
<path d="M20.8125 9H19.5C19.3969 9 19.3125 8.91563 19.3125 8.8125V4.6875H15.1875C15.0844 4.6875 15 4.60312 15 4.5V3.1875C15 3.08437 15.0844 3 15.1875 3H19.4062C20.2875 3 21 3.7125 21 4.59375V8.8125C21 8.91563 20.9156 9 20.8125 9ZM8.8125 4.6875H4.6875V8.8125C4.6875 8.91563 4.60312 9 4.5 9H3.1875C3.08438 9 3 8.91563 3 8.8125V4.59375C3 3.7125 3.7125 3 4.59375 3H8.8125C8.91562 3 9 3.08437 9 3.1875V4.5C9 4.60312 8.91562 4.6875 8.8125 4.6875ZM15.1875 19.3125H19.3125V15.1875C19.3125 15.0844 19.3969 15 19.5 15H20.8125C20.9156 15 21 15.0844 21 15.1875V19.4062C21 20.2875 20.2875 21 19.4062 21H15.1875C15.0844 21 15 20.9156 15 20.8125V19.5C15 19.3969 15.0844 19.3125 15.1875 19.3125ZM3.1875 15H4.5C4.60312 15 4.6875 15.0844 4.6875 15.1875V19.3125H8.8125C8.91562 19.3125 9 19.3969 9 19.5V20.8125C9 20.9156 8.91562 21 8.8125 21H4.59375C3.7125 21 3 20.2875 3 19.4062V15.1875C3 15.0844 3.08438 15 3.1875 15ZM2.8125 11.1562H21.1875C21.2906 11.1562 21.375 11.2406 21.375 11.3438V12.6562C21.375 12.7594 21.2906 12.8438 21.1875 12.8438H2.8125C2.70938 12.8438 2.625 12.7594 2.625 12.6562V11.3438C2.625 11.2406 2.70938 11.1562 2.8125 11.1562Z" fill="#F0F0F0"/>
</svg>
