<svg width="50" height="40" viewBox="0 0 50 40" fill="none" xmlns="http://www.w3.org/2000/svg">
<path d="M27.23 22.8611L24.5029 20.134L21.7759 22.8611" stroke="#0796D0" stroke-linecap="round" stroke-linejoin="round"/>
<path d="M24.5029 20.134V26.2698" stroke="#0796D0" stroke-linecap="round" stroke-linejoin="round"/>
<path d="M30.2229 24.4905C30.8878 24.128 31.4131 23.5544 31.7158 22.8602C32.0186 22.166 32.0815 21.3908 31.8947 20.6568C31.7079 19.9229 31.282 19.272 30.6842 18.807C30.0864 18.342 29.3508 18.0894 28.5935 18.0889H27.7345C27.5281 17.2907 27.1435 16.5497 26.6095 15.9216C26.0756 15.2934 25.4062 14.7945 24.6516 14.4623C23.8971 14.1302 23.0771 13.9733 22.2532 14.0037C21.4294 14.0341 20.6231 14.2508 19.8951 14.6376C19.167 15.0244 18.5362 15.5712 18.0499 16.2369C17.5636 16.9026 17.2345 17.6699 17.0875 18.4811C16.9404 19.2923 16.9792 20.1263 17.2008 20.9204C17.4225 21.7144 17.8212 22.4479 18.3671 23.0657" stroke="#0796D0" stroke-linecap="round" stroke-linejoin="round"/>
<path d="M27.23 22.8611L24.5029 20.134L21.7759 22.8611" stroke="#0796D0" stroke-linecap="round" stroke-linejoin="round"/>
<rect x="0.5" y="0.5" width="49" height="39" rx="2.5" stroke="#D9D9D9" stroke-dasharray="2 2"/>
</svg>
