<svg width="24" height="24" viewBox="0 0 24 24" fill="none" xmlns="http://www.w3.org/2000/svg">
<path d="M12 6C12.7417 6 13.4667 6.21993 14.0834 6.63199C14.7001 7.04404 15.1807 7.62971 15.4645 8.31494C15.7484 9.00016 15.8226 9.75416 15.6779 10.4816C15.5332 11.209 15.1761 11.8772 14.6516 12.4017C14.1272 12.9261 13.459 13.2833 12.7316 13.4279C12.0042 13.5726 11.2502 13.4984 10.5649 13.2145C9.87971 12.9307 9.29404 12.4501 8.88199 11.8334C8.46993 11.2167 8.25 10.4917 8.25 9.75C8.25 8.75544 8.64509 7.80161 9.34835 7.09835C10.0516 6.39509 11.0054 6 12 6ZM12 12C12.445 12 12.88 11.868 13.25 11.6208C13.62 11.3736 13.9084 11.0222 14.0787 10.611C14.249 10.1999 14.2936 9.7475 14.2068 9.31105C14.1199 8.87459 13.9057 8.47368 13.591 8.15901C13.2763 7.84434 12.8754 7.63005 12.439 7.54323C12.0025 7.45642 11.5501 7.50097 11.139 7.67127C10.7278 7.84157 10.3764 8.12996 10.1292 8.49997C9.88196 8.86998 9.75 9.30499 9.75 9.75C9.75059 10.3466 9.98784 10.9185 10.4097 11.3403C10.8315 11.7622 11.4034 11.9994 12 12Z" fill="#F0F0F0"/>
<path d="M12 1.5C14.0767 1.5 16.1068 2.11581 17.8335 3.26957C19.5602 4.42332 20.906 6.0632 21.7007 7.98182C22.4955 9.90045 22.7034 12.0116 22.2982 14.0484C21.8931 16.0852 20.8931 17.9562 19.4246 19.4246C17.9562 20.8931 16.0852 21.8931 14.0484 22.2982C12.0116 22.7034 9.90044 22.4955 7.98182 21.7007C6.06319 20.906 4.42332 19.5602 3.26956 17.8335C2.11581 16.1068 1.5 14.0767 1.5 12C1.50317 9.2162 2.61044 6.54733 4.57888 4.57889C6.54733 2.61044 9.2162 1.50318 12 1.5ZM16.5 19.7828V18.75C16.4994 18.1534 16.2622 17.5815 15.8403 17.1597C15.4185 16.7378 14.8465 16.5006 14.25 16.5H9.75C9.15344 16.5006 8.58149 16.7378 8.15966 17.1597C7.73783 17.5815 7.50059 18.1534 7.5 18.75V19.7828C8.86562 20.5802 10.4186 21.0004 12 21.0004C13.5814 21.0004 15.1344 20.5802 16.5 19.7828ZM6.00599 18.6945C6.02094 17.7107 6.42175 16.7722 7.12206 16.0812C7.82237 15.3901 8.76613 15.0019 9.75 15H14.25C15.2339 15.0019 16.1776 15.3901 16.8779 16.0812C17.5782 16.7722 17.979 17.7107 17.994 18.6945C19.3541 17.4801 20.3132 15.8812 20.7444 14.1095C21.1755 12.3378 21.0584 10.477 20.4085 8.77339C19.7586 7.06978 18.6066 5.60375 17.105 4.56942C15.6034 3.5351 13.823 2.98127 11.9996 2.98127C10.1763 2.98127 8.39589 3.5351 6.89427 4.56942C5.39266 5.60375 4.24063 7.06978 3.59072 8.77339C2.94082 10.477 2.8237 12.3378 3.25487 14.1095C3.68604 15.8812 4.64517 17.4801 6.00525 18.6945H6.00599Z" fill="#F0F0F0"/>
</svg>
