<svg width="45" height="45" viewBox="0 0 45 45" fill="none" xmlns="http://www.w3.org/2000/svg">
<path d="M43.125 22.5L38.55 17.2688L39.1875 10.35L32.4188 8.8125L28.875 2.8125L22.5 5.55L16.125 2.8125L12.5813 8.79375L5.8125 10.3125L6.45 17.25L1.875 22.5L6.45 27.7313L5.8125 34.6687L12.5813 36.2062L16.125 42.1875L22.5 39.4313L28.875 42.1688L32.4188 36.1875L39.1875 34.65L38.55 27.7313L43.125 22.5ZM17.5875 30.0188L13.125 25.5187C12.9512 25.3453 12.8133 25.1392 12.7192 24.9124C12.6251 24.6856 12.5767 24.4424 12.5767 24.1969C12.5767 23.9513 12.6251 23.7082 12.7192 23.4813C12.8133 23.2545 12.9512 23.0485 13.125 22.875L13.2563 22.7437C13.9875 22.0125 15.1875 22.0125 15.9187 22.7437L18.9375 25.7812L28.5938 16.1063C29.325 15.375 30.525 15.375 31.2563 16.1063L31.3875 16.2375C32.1187 16.9687 32.1187 18.15 31.3875 18.8812L20.2875 30.0188C19.5187 30.75 18.3375 30.75 17.5875 30.0188Z" fill="#0796D0"/>
</svg>
